<?xml version="1.0" encoding="UTF-8"?>
<svg version="1.1" xmlns="http://www.w3.org/2000/svg" width="1507" height="410">
<path d="M0 0 C6.35613182 0.00010261 12.71215442 -0.01368985 19.06826019 -0.03077221 C24.02191669 -0.04192515 28.97554671 -0.0439184 33.92921448 -0.04339027 C36.27332444 -0.04455999 38.61743531 -0.04892417 40.96153259 -0.05672264 C52.83105908 -0.09260764 64.39132494 -0.11937744 76.08154297 2.18530273 C76.81638916 2.33016617 77.55123535 2.4750296 78.30834961 2.62428284 C101.2997866 7.63374981 124.36000713 20.59038519 138.11279297 40.04858398 C146.0157681 52.64003047 149.66635478 65.61944621 149.51904297 80.43530273 C149.51074463 81.52431885 149.50244629 82.61333496 149.49389648 83.73535156 C149.07071133 104.07685295 141.63263797 121.85973326 127.08154297 136.18530273 C116.65721137 145.90770459 104.08074878 151.6933902 91.08154297 157.18530273 C91.75056641 157.78213867 92.41958984 158.37897461 93.10888672 158.99389648 C100.28123386 165.47307719 107.16568902 172.18735481 113.94067383 179.08154297 C117.20112554 182.38212806 120.48250427 185.58424187 124.00341797 188.60717773 C129.65300997 193.47064327 134.78968276 198.84862936 140.01513672 204.15795898 C144.28649679 208.47085579 148.62259887 212.60102969 153.22802734 216.55444336 C156.15259646 219.12769437 158.86047727 221.90036028 161.58154297 224.68530273 C165.67357628 228.82917121 169.81526675 232.80827575 174.25732422 236.57983398 C176.28959803 238.36840901 178.18212192 240.25649026 180.08154297 242.18530273 C183.27771757 245.42508985 186.58446659 248.45843529 190.04248047 251.41577148 C191.40573149 252.59882266 192.7446878 253.81044124 194.05810547 255.04858398 C211.96873833 271.78529896 234.31171306 281.80797092 258.38085938 285.66650391 C263.13145884 286.49406719 266.0261361 287.1366782 269.08154297 291.18530273 C267.6727488 294.58988865 266.25440448 296.29758791 263.08154297 298.18530273 C260.05493164 298.57348633 260.05493164 298.57348633 256.49951172 298.58374023 C255.18635986 298.59002441 253.87320801 298.59630859 252.52026367 298.6027832 C251.10317208 298.59055891 249.68609637 298.5763551 248.26904297 298.56030273 C247.5514682 298.55565002 246.83389343 298.55099731 246.09457397 298.54620361 C194.25743961 298.15215854 160.10559873 278.51960722 124.45654297 242.56030273 C121.36317236 239.44013312 118.26635982 236.32343771 115.16748047 233.20874023 C114.47455902 232.50752045 113.78163757 231.80630066 113.06771851 231.08383179 C109.13112454 227.12776708 105.09376706 223.36190504 100.85244751 219.73355103 C97.61593149 216.90396293 94.65609544 213.80311214 91.65966797 210.72436523 C88.93607449 207.95684283 86.14367695 205.34254041 83.19873047 202.81030273 C78.96679464 199.15133684 75.10126819 195.19611016 71.20654297 191.18530273 C62.3217275 182.19046814 51.39267392 171.79164475 37.96376038 171.07177734 C37.20606857 171.07701416 36.44837677 171.08225098 35.66772461 171.08764648 C34.80325211 171.09094971 33.9387796 171.09425293 33.04811096 171.09765625 C32.12199509 171.10595459 31.19587921 171.11425293 30.24169922 171.12280273 C29.2825914 171.12658936 28.32348358 171.13037598 27.33531189 171.13427734 C23.23610217 171.15061359 19.13699246 171.17874707 15.0378418 171.20581055 C12.04329896 171.22390015 9.04877234 171.23599174 6.05419922 171.24780273 C5.13010757 171.25610107 4.20601593 171.26439941 3.25392151 171.27294922 C2.38629684 171.27625244 1.51867218 171.27955566 0.62475586 171.28295898 C-0.13373154 171.2881958 -0.89221893 171.29343262 -1.6736908 171.29882812 C-4.16459308 171.17285481 -6.48694946 170.72721897 -8.91845703 170.18530273 C-8.8337943 181.07806394 -8.73881191 191.97068283 -8.63092995 202.86324024 C-8.58114558 207.92198294 -8.53481498 212.98070655 -8.49658203 218.03955078 C-8.45950236 222.92853177 -8.41308312 227.8173457 -8.36039352 232.70618248 C-8.34196937 234.56429784 -8.32681804 236.42244884 -8.31511307 238.28061867 C-8.94559943 257.60062739 -8.94559943 257.60062739 -0.91845703 274.31030273 C10.03953916 281.15905035 22.95678676 282.20652094 35.56201172 282.93920898 C38.08154297 283.18530273 38.08154297 283.18530273 39.08154297 284.18530273 C39.20654297 287.68530273 39.20654297 287.68530273 39.08154297 291.18530273 C38.08154297 292.18530273 38.08154297 292.18530273 35.91261959 292.30835056 C34.94750234 292.30742877 33.98238508 292.30650698 32.98802185 292.30555725 C31.33257858 292.30761925 31.33257858 292.30761925 29.64369202 292.3097229 C28.42234055 292.30612762 27.20098907 292.30253235 25.94262695 292.29882812 C24.66476318 292.29897415 23.38689941 292.29912018 22.0703125 292.29927063 C18.55600706 292.29955859 15.04173547 292.29366214 11.52743793 292.28669667 C7.85854941 292.28046285 4.1896602 292.27985931 0.52076721 292.27867126 C-6.43136138 292.27555803 -13.38347433 292.26734475 -20.33559602 292.25732177 C-28.24840483 292.24616039 -36.16121437 292.24065012 -44.07402909 292.23562634 C-60.35551424 292.22516213 -76.63698364 292.20756284 -92.91845703 292.18530273 C-93.79736328 286.03295898 -93.79736328 286.03295898 -93.91845703 284.18530273 C-92.18970346 282.45654916 -89.77685211 282.7892213 -87.41455078 282.57202148 C-86.28082031 282.45793945 -85.14708984 282.34385742 -83.97900391 282.22631836 C-81.59184102 281.99339303 -79.20380579 281.76921716 -76.81494141 281.55444336 C-68.78974589 280.72612369 -61.14777524 279.56662617 -55.60595703 273.06030273 C-46.41793637 261.35056988 -48.76906342 243.16777452 -48.77319336 229.14672852 C-48.77019785 227.11548806 -48.76679442 225.08424818 -48.76301575 223.05300903 C-48.75421261 217.55709993 -48.75183922 212.06120641 -48.75119996 206.56529093 C-48.7504875 203.12683737 -48.74834949 199.68838773 -48.74570274 196.24993515 C-48.73646235 184.24092102 -48.73236632 172.23191796 -48.7331543 160.22290039 C-48.73375511 149.04961799 -48.72319911 137.87638386 -48.70741063 126.70311368 C-48.69431466 117.09091215 -48.68897125 107.47872637 -48.68960971 97.86651599 C-48.68986404 92.13404762 -48.68704857 86.4016222 -48.67643166 80.66916275 C-48.66671572 75.27646872 -48.6666954 69.88385842 -48.67394829 64.49116135 C-48.67498971 62.51919685 -48.67265773 60.54722704 -48.66658783 58.57527161 C-48.08139509 37.56312655 -48.08139509 37.56312655 -56.91845703 19.18530273 C-65.0979089 12.7259931 -76.69193551 12.95423988 -86.59814453 12.82202148 C-89.91845703 12.18530273 -89.91845703 12.18530273 -92.36376953 9.64233398 C-93.13333984 8.42610352 -93.13333984 8.42610352 -93.91845703 7.18530273 C-90.30410639 2.48664691 -90.30410639 2.48664691 -86.85095215 1.735672 C-85.67683777 1.64850166 -85.67683777 1.64850166 -84.47900391 1.55957031 C-83.13721069 1.45716537 -83.13721069 1.45716537 -81.76831055 1.35269165 C-80.82785889 1.29745331 -79.88740723 1.24221497 -78.91845703 1.18530273 C-78.02247803 1.13143402 -77.12649902 1.07756531 -76.20336914 1.02206421 C-50.83688984 -0.28821713 -25.39029344 -0.00214806 0 0 Z M-7.57810593 9.83609581 C-9.28166451 12.82188932 -9.29061911 14.80210901 -9.28594971 18.23355103 C-9.29151886 19.47304001 -9.29708801 20.71252899 -9.30282593 21.98957825 C-9.29380383 23.36032296 -9.28448605 24.73106574 -9.27490234 26.10180664 C-9.27569332 27.54741032 -9.27779089 28.99301378 -9.28109741 30.43861389 C-9.28623077 34.36204141 -9.2726984 38.28520659 -9.25557041 42.20859194 C-9.24053764 46.31161136 -9.24170855 50.41462733 -9.24090576 54.51766968 C-9.23721362 61.40594972 -9.22224735 68.29413009 -9.19970703 75.18237305 C-9.17081037 84.03127097 -9.1604816 92.88008872 -9.15602493 101.7290287 C-9.15204863 109.32972812 -9.13954785 116.93041004 -9.12567806 124.53109694 C-9.12157566 126.97816522 -9.11865181 129.42523289 -9.11588287 131.87230301 C-9.11099688 135.71197589 -9.10080536 139.55159993 -9.08644485 143.3912487 C-9.08191485 144.80300773 -9.07908154 146.21477333 -9.07803726 147.62653923 C-9.07629664 149.5480432 -9.06779138 151.46953755 -9.05889893 153.39102173 C-9.05592426 154.46801142 -9.0529496 155.54500111 -9.0498848 156.65462685 C-9.08800812 159.17971987 -9.08800812 159.17971987 -7.91845703 161.18530273 C-1.96348709 161.2605161 3.99119506 161.31439704 9.9465332 161.35009766 C11.96448596 161.36500982 13.98240734 161.38534675 16.00024414 161.41162109 C41.01679616 161.72875859 66.46641251 158.89338134 85.33154297 140.62280273 C102.35745279 123.26746544 104.52972727 101.76188535 104.38191223 78.61631775 C104.1495153 59.45904232 99.12050878 41.70768541 85.17138672 27.88061523 C69.41716964 13.44732474 47.20555741 10.11092955 26.70654297 8.99780273 C25.34618747 8.91958332 23.98583595 8.8412949 22.62548828 8.76293945 C18.77850565 8.54787355 14.93045968 8.36263119 11.08154297 8.18530273 C10.08413086 8.13712402 9.08671875 8.08894531 8.05908203 8.03930664 C5.64950986 7.93436937 3.24278143 7.86104565 0.83154297 7.81030273 C-0.43173828 7.78194336 -1.69501953 7.75358398 -2.99658203 7.72436523 C-5.95429594 7.89842628 -5.95429594 7.89842628 -7.57810593 9.83609581 Z " fill="#000000" transform="translate(1236.91845703125,107.814697265625)"/>
<path d="M0 0 C9.16691891 8.05801743 17.97552411 16.80597797 25.875 26.11328125 C28.56194788 29.15179241 31.48474192 31.94933127 34.37109375 34.796875 C36.29184884 36.74521724 38.08730305 38.73389834 39.859375 40.81640625 C42.92187748 44.39289517 46.19968773 47.69779506 49.546875 51.00390625 C52.78985293 54.20732964 55.9762371 57.39497919 58.921875 60.87890625 C62.7830351 65.4248041 67.05120775 69.56076481 71.31005859 73.72998047 C74.31871969 76.69465777 77.19766392 79.7075232 79.953125 82.91015625 C83.76973113 87.33162629 87.88159422 91.41313854 92.046875 95.50390625 C96.13856831 99.52240289 100.18949997 103.52079656 103.921875 107.87890625 C108.35220628 113.028217 113.21232058 117.73773308 118.046875 122.50390625 C128.20816299 132.52147022 128.20816299 132.52147022 131.984375 136.94140625 C136.68669966 142.43207814 141.90465787 147.43062404 147.046875 152.50390625 C152.7862171 158.16630855 158.46377467 163.80467417 163.70507812 169.93945312 C167.77003651 174.49582747 172.19991697 178.71813195 176.546875 183.00390625 C182.23813532 188.6150617 187.87163468 194.21993873 193.07177734 200.29736328 C195.07165033 202.61101972 197.19368108 204.78329795 199.359375 206.94140625 C200.10832031 207.69292969 200.85726563 208.44445312 201.62890625 209.21875 C203.42907938 211.06251758 203.42907938 211.06251758 205.546875 212.00390625 C205.50967336 187.02972095 205.449761 162.05567891 205.36297226 137.08161449 C205.32319956 125.48515281 205.29079804 113.88875882 205.27587891 102.29223633 C205.26285327 92.1821599 205.23586517 82.07223252 205.19226193 71.96224004 C205.16966781 66.6113661 205.1539631 61.26067586 205.15499115 55.90974998 C205.15573896 50.8675195 205.13773932 45.82569479 205.10570717 40.78356934 C205.09722759 38.93860539 205.09544497 37.09359583 205.10107231 35.24862099 C205.47276397 19.67925059 205.47276397 19.67925059 198.8554039 6.05552959 C192.38010653 0.08757587 182.78973077 -0.49767726 174.4140625 -1.51171875 C173.73674072 -1.59454102 173.05941895 -1.67736328 172.36157227 -1.76269531 C170.45287705 -1.98519411 168.54089017 -2.17889432 166.62890625 -2.37109375 C163.546875 -2.99609375 163.546875 -2.99609375 161.60546875 -4.39453125 C160.546875 -5.99609375 160.546875 -5.99609375 160.796875 -8.62109375 C161.546875 -10.99609375 161.546875 -10.99609375 162.546875 -11.99609375 C163.93831189 -12.0915247 165.33455867 -12.1179795 166.72926331 -12.11634827 C168.08179703 -12.11841026 168.08179703 -12.11841026 169.46165466 -12.12051392 C170.95705528 -12.115121 170.95705528 -12.115121 172.48266602 -12.10961914 C173.52644409 -12.10976517 174.57022217 -12.10991119 175.64562988 -12.11006165 C179.11403443 -12.10936201 182.58238603 -12.10156728 186.05078125 -12.09375 C188.44831818 -12.091886 190.8458555 -12.09046201 193.24339294 -12.08946228 C199.56783084 -12.08563569 205.89224594 -12.07580421 212.2166748 -12.0647583 C218.66462902 -12.0545472 225.11258691 -12.04996531 231.56054688 -12.04492188 C244.222666 -12.03418207 256.88476929 -12.01729494 269.546875 -11.99609375 C269.671875 -8.62109375 269.671875 -8.62109375 269.546875 -4.99609375 C266.93856694 -2.38778569 265.32536435 -2.49729554 261.69140625 -2.03125 C260.51126953 -1.87076172 259.33113281 -1.71027344 258.11523438 -1.54492188 C255.6310344 -1.2232548 253.14666144 -0.90292054 250.66210938 -0.58398438 C241.75420533 0.59386725 241.75420533 0.59386725 233.546875 4.00390625 C227.80871373 11.70512269 228.39815931 20.57486702 228.39538574 29.82981873 C228.39115333 30.89767217 228.38692092 31.96552562 228.38256025 33.06573826 C228.36957941 36.63163623 228.36352011 40.19751186 228.35742188 43.76342773 C228.34947623 46.32453039 228.34108802 48.8856317 228.33229065 51.44673157 C228.31425876 56.95452459 228.29912545 62.46231352 228.28651428 67.97012138 C228.26818624 75.93448567 228.243524 83.89882095 228.21714038 91.86316217 C228.17440407 104.78759032 228.13527165 117.71202643 228.09912109 130.63647461 C228.09695829 131.40924813 228.09479549 132.18202165 228.09256715 132.97821254 C228.07503607 139.25217255 228.05768241 145.52613305 228.04036427 151.80009365 C228.02519534 157.29470783 228.00996486 162.78932183 227.99462891 168.28393555 C227.99247004 169.05788721 227.99031117 169.83183887 227.98808688 170.6292436 C227.95202317 183.51504489 227.91208031 196.40083131 227.86932611 209.28661209 C227.84313804 217.23627954 227.82048693 225.18594239 227.80234253 233.13563234 C227.78822041 239.21469372 227.76909706 245.29372836 227.74809074 251.37277031 C227.74030378 253.87342858 227.73424786 256.37409289 227.72999763 258.87475967 C227.72399482 262.27216555 227.71196882 265.66949664 227.69836426 269.06687927 C227.69792028 270.57179441 227.69792028 270.57179441 227.69746733 272.10711187 C227.69260958 273.00985218 227.68775184 273.91259249 227.68274689 274.84268856 C227.68063092 275.62779055 227.67851495 276.41289253 227.67633486 277.22178549 C227.546875 279.00390625 227.546875 279.00390625 226.546875 280.00390625 C224.47265625 280.2421875 224.47265625 280.2421875 221.859375 280.31640625 C221.00988281 280.35378906 220.16039062 280.39117187 219.28515625 280.4296875 C211.46712285 279.21404465 205.87549765 271.59398036 200.609375 266.25390625 C199.74119141 265.38507813 198.87300781 264.51625 197.97851562 263.62109375 C193.55956407 259.1720813 189.30724403 254.64799766 185.22045898 249.89355469 C182.31458108 246.61251968 179.17494588 243.57114464 176.046875 240.50390625 C171.70107295 236.20438089 167.48619222 231.90059545 163.546875 227.22265625 C159.91614548 223.19481569 156.00966173 219.4285221 152.13867188 215.6328125 C148.99185022 212.52864849 145.96351509 209.3850876 143.078125 206.03515625 C139.43621009 201.81151815 135.52653201 197.90732462 131.546875 194.00390625 C126.93884545 189.48415313 122.53669703 184.89458398 118.32421875 180.00390625 C115.22300915 176.51419347 111.87853368 173.27174005 108.546875 170.00390625 C104.58820127 166.12106918 100.69629162 162.24049963 97.078125 158.03515625 C93.28545452 153.63187443 89.19114294 149.57403701 85.046875 145.50390625 C80.27829726 140.82063401 75.69711534 136.08424273 71.33789062 131.01757812 C68.074965 127.34901071 64.54838788 123.94278026 61.046875 120.50390625 C56.27829726 115.82063401 51.69711534 111.08424273 47.33789062 106.01757812 C44.074965 102.34901071 40.54838788 98.94278026 37.046875 95.50390625 C32.26806698 90.81058675 27.67532406 86.06398647 23.30664062 80.98632812 C20.21293494 77.50118798 16.87251022 74.26583199 13.546875 71.00390625 C9.59173473 67.12453495 5.70207707 63.24741503 2.0859375 59.046875 C-1.75713467 54.5858159 -5.89239544 50.45406648 -10.078125 46.31640625 C-10.81546875 45.58357422 -11.5528125 44.85074219 -12.3125 44.09570312 C-13.72848407 42.68860068 -15.14542273 41.28245796 -16.56347656 39.87744141 C-18.86720062 37.59336151 -21.16140169 35.30001984 -23.453125 33.00390625 C-23.783125 32.67390625 -24.113125 32.34390625 -24.453125 32.00390625 C-24.49989372 58.52532957 -24.53513772 85.04674669 -24.55674934 111.56820297 C-24.56705174 123.88321056 -24.58109226 136.19819248 -24.60400391 148.51318359 C-24.62396951 159.24981874 -24.63684897 169.9864353 -24.64130199 180.7230885 C-24.64390399 186.40540954 -24.64999826 192.08767742 -24.66458511 197.76998138 C-24.67821911 203.12478 -24.68233591 208.47950384 -24.67934036 213.83431816 C-24.67988793 215.79337661 -24.68383054 217.75243772 -24.69153595 219.71148109 C-25.39615157 241.37363488 -25.39615157 241.37363488 -15.703125 259.81640625 C-7.96295768 265.02613425 -0.04764744 265.77695702 9.046875 266.69140625 C10.25085938 266.82095703 11.45484375 266.95050781 12.6953125 267.08398438 C15.64497316 267.40001945 18.59529892 267.70638891 21.546875 268.00390625 C21.546875 270.97390625 21.546875 273.94390625 21.546875 277.00390625 C-14.423125 277.00390625 -50.393125 277.00390625 -87.453125 277.00390625 C-87.453125 274.36390625 -87.453125 271.72390625 -87.453125 269.00390625 C-83.15558617 267.02433128 -78.83883899 266.33139522 -74.203125 265.62890625 C-62.72546132 263.7571369 -62.72546132 263.7571369 -53.515625 257.06640625 C-48.52434467 249.65511122 -48.30412262 242.21986747 -48.31268311 233.54637146 C-48.30971198 232.60147214 -48.30674086 231.65657283 -48.3036797 230.6830402 C-48.29501708 227.52102495 -48.29348655 224.35904766 -48.29199219 221.19702148 C-48.28736248 218.92841512 -48.28233761 216.65980952 -48.27694702 214.39120483 C-48.26384018 208.23233022 -48.257382 202.07346649 -48.25293636 195.91458011 C-48.25000431 192.06814919 -48.24589936 188.22172124 -48.24143219 184.37529182 C-48.22932974 173.72159508 -48.21894426 163.06790196 -48.2155571 152.41419888 C-48.21533753 151.73314921 -48.21511797 151.05209955 -48.21489175 150.35041201 C-48.21467347 149.66776493 -48.21445519 148.98511784 -48.2142303 148.28178447 C-48.21378684 146.89854967 -48.21334027 145.51531488 -48.21289062 144.13208008 C-48.21255848 143.1028889 -48.21255848 143.1028889 -48.21221963 142.05290598 C-48.20826791 130.92450977 -48.1907991 119.79617889 -48.1675311 108.66780793 C-48.14382483 97.23751179 -48.13161376 85.80726317 -48.13018918 74.37693936 C-48.12913962 67.96106224 -48.12319909 61.54527745 -48.10536957 55.12942314 C-48.0889361 49.09903875 -48.08671038 43.06881657 -48.09550858 37.03841782 C-48.09628135 34.82324223 -48.09190478 32.60805808 -48.08205032 30.39290428 C-48.06940243 27.37322684 -48.07516862 24.35413024 -48.08563232 21.3344574 C-48.07757592 20.45430527 -48.06951952 19.57415314 -48.06121898 18.66732973 C-48.09954247 13.95139666 -48.3947783 10.83905213 -51.453125 7.00390625 C-57.6045158 2.77786044 -65.74532911 1.52080403 -72.890625 -0.12109375 C-75.0366654 -0.61721453 -77.18129051 -1.11951074 -79.32421875 -1.62890625 C-80.26193115 -1.84434082 -81.19964355 -2.05977539 -82.16577148 -2.28173828 C-84.453125 -2.99609375 -84.453125 -2.99609375 -86.453125 -4.99609375 C-86.078125 -8.62109375 -86.078125 -8.62109375 -85.453125 -11.99609375 C-84.38465332 -12.0211499 -83.31618164 -12.04620605 -82.21533203 -12.07202148 C-78.2082348 -12.16700002 -74.20127494 -12.26699057 -70.19433594 -12.3684082 C-68.46813191 -12.41141833 -66.74189454 -12.45311323 -65.015625 -12.4934082 C-52.68760107 -12.77231622 -52.68760107 -12.77231622 -40.40478516 -13.80249023 C-25.18216138 -15.31256537 -11.58845525 -9.42945961 0 0 Z " fill="#000000" transform="translate(91.453125,122.99609375)"/>
<path d="M0 0 C1.68433224 1.5094016 3.35511114 3.03415399 5.0078125 4.578125 C7.17476989 6.6359334 7.17476989 6.6359334 10.1328125 8.859375 C14.68956541 12.93136696 18.31947556 17.67560969 22.0703125 22.484375 C22.73160156 23.30679688 23.39289063 24.12921875 24.07421875 24.9765625 C45.91791015 53.30716831 53.29660269 89.54190719 49.609375 124.66796875 C44.09292305 166.81068923 21.20550555 206.97185092 -12.50732422 232.98193359 C-36.13034138 250.47747872 -64.59112027 261.81723252 -93.9296875 264.484375 C-95.20457031 264.61714844 -96.47945312 264.74992187 -97.79296875 264.88671875 C-145.00019139 269.08733802 -195.81661027 256.27061247 -232.9296875 226.484375 C-233.76282471 225.82163574 -233.76282471 225.82163574 -234.61279297 225.14550781 C-258.1980957 206.23779232 -274.36970238 180.77199179 -281.9296875 151.484375 C-282.249375 150.30101562 -282.5690625 149.11765625 -282.8984375 147.8984375 C-287.40462163 127.66233286 -287.15250071 102.54035315 -281.9296875 82.484375 C-281.73101074 81.70030273 -281.53233398 80.91623047 -281.32763672 80.10839844 C-270.82082103 39.70241212 -246.19587347 5.4208528 -210.18725586 -16.0871582 C-188.38791005 -28.59435159 -163.75340635 -35.34354369 -138.9296875 -38.515625 C-137.84276611 -38.65701904 -137.84276611 -38.65701904 -136.73388672 -38.80126953 C-88.11366431 -44.41786476 -37.53152711 -32.22707128 0 0 Z M-205.828125 6.9375 C-230.6735048 34.55725471 -242.82904363 73.68434992 -240.9296875 110.484375 C-238.18929465 151.83766436 -224.53552209 192.23529802 -192.9296875 220.484375 C-165.41573064 243.59038943 -129.29306152 255.26914049 -93.5078125 252.28222656 C-66.23156358 249.12304563 -41.48534295 234.24759624 -24.27734375 213.109375 C-1.7712031 184.6517625 6.755895 148.26245034 5.0703125 112.484375 C5.03309082 111.6579248 4.99586914 110.83147461 4.95751953 109.97998047 C2.84106293 69.79831549 -12.18649506 31.71752897 -41.6171875 3.921875 C-88.27902559 -36.91622059 -162.33449861 -39.17694748 -205.828125 6.9375 Z " fill="#000000" transform="translate(677.9296875,142.515625)"/>
<path d="M0 0 C1.1442041 0.00273422 1.1442041 0.00273422 2.31152344 0.00552368 C14.34969935 0.0537858 25.96332466 0.69382191 37.75 3.3125 C38.49958984 3.4681543 39.24917969 3.62380859 40.02148438 3.78417969 C79.15045791 12.08376298 118.07469273 35.94905506 140.59765625 69.46875 C160.63125076 100.41386595 167.86336996 137.61855389 160.71875 173.9453125 C160.40342674 175.40270532 160.08049057 176.85847161 159.75 178.3125 C159.58371094 179.05081055 159.41742187 179.78912109 159.24609375 180.54980469 C150.14430471 219.4683804 126.31891333 255.63950838 92.25073242 277.03613281 C75.0710075 287.51071561 57.68109505 294.80874725 38.125 299.625 C37.14917969 299.86758545 36.17335938 300.1101709 35.16796875 300.36010742 C20.70847487 303.7374116 6.23453256 304.6994256 -8.5625 304.625 C-9.32280518 304.62317719 -10.08311035 304.62135437 -10.86645508 304.61947632 C-22.87932511 304.57118954 -34.49139302 303.95091535 -46.25 301.3125 C-47.02085937 301.14621094 -47.79171875 300.97992188 -48.5859375 300.80859375 C-88.33371254 292.01195501 -127.30545918 268.51531105 -150.25 234.3125 C-157.9934157 222.09524944 -164.03857314 209.17385622 -168 195.25 C-168.19883789 194.55471191 -168.39767578 193.85942383 -168.60253906 193.14306641 C-171.7348549 181.50299393 -172.65903304 169.89640685 -172.625 157.875 C-172.62478851 157.17995361 -172.62457703 156.48490723 -172.62435913 155.76879883 C-172.58674052 143.30152822 -171.35663293 131.40961715 -168.25 119.3125 C-168.06276367 118.58192383 -167.87552734 117.85134766 -167.68261719 117.09863281 C-164.92555112 106.75130196 -160.85838582 96.96115701 -156.25 87.3125 C-155.95254883 86.6848877 -155.65509766 86.05727539 -155.34863281 85.41064453 C-145.92906798 65.85359127 -131.59201766 48.3428347 -114.25 35.3125 C-113.3115625 34.59707031 -112.373125 33.88164062 -111.40625 33.14453125 C-79.40185638 9.84236322 -39.2117907 -0.19608044 0 0 Z M-81.25 36.3125 C-82.10722656 37.02019531 -82.96445312 37.72789062 -83.84765625 38.45703125 C-94.40423253 47.51251786 -102.45549725 58.23022523 -109.25 70.3125 C-109.84554687 71.36695313 -110.44109375 72.42140625 -111.0546875 73.5078125 C-130.80351837 110.63561453 -132.0344564 155.89520573 -120.44726562 195.80664062 C-109.43903411 230.7682674 -88.05276869 259.36106276 -55.30932617 276.55126953 C-26.39316926 291.19495726 5.65678973 297.44474508 37.3125 288.28125 C67.10794868 278.4381107 88.94711036 257.21820671 103.26831055 229.68676758 C122.58542808 190.85600887 121.79716581 142.85907683 108.75 102.3125 C101.61254611 82.24487602 91.37791676 64.85131268 76.75 49.3125 C76.21117187 48.70921875 75.67234375 48.1059375 75.1171875 47.484375 C54.25533896 25.05002531 20.61707447 13.85651677 -9.25 12.3125 C-9.93449219 12.27125 -10.61898437 12.23 -11.32421875 12.1875 C-36.60891761 11.4169187 -62.00787381 19.92953075 -81.25 36.3125 Z " fill="#000000" transform="translate(948.25,102.6875)"/>
<path d="M0 0 C12.8364749 4.34122012 25.00648622 7.51172676 38.68017578 7.16088867 C39.71400391 7.14735352 40.74783203 7.13381836 41.81298828 7.11987305 C44.31098365 7.08517867 46.80776092 7.0363243 49.30517578 6.97338867 C38.91277974 21.21531249 27.22151113 32.10072731 9.30517578 34.97338867 C-11.3196176 36.20925547 -29.70078965 30.87841837 -49.31469727 25.14746094 C-60.74722646 21.82198724 -71.26562222 19.62679594 -83.19482422 19.72338867 C-84.15001953 19.7156543 -85.10521484 19.70791992 -86.08935547 19.69995117 C-92.8125414 19.71814653 -99.12498208 20.56648101 -105.69482422 21.97338867 C-96.79857682 6.29375262 -81.91239527 -4.27327414 -65.07763672 -9.90161133 C-43.08833851 -15.23235029 -20.58115938 -6.99414218 0 0 Z " fill="#000000" transform="translate(589.69482421875,18.026611328125)"/>
</svg>
